<svg xmlns="http://www.w3.org/2000/svg" data-name="Слой 1" viewBox="0 0 100 125" x="0px" y="0px">
  <path fill="none" d="M45.15262,54.24805a1.65373,1.65373,0,0,0-1.316.51785c-1.17561,2.14229-2.27531,4.32868-3.32492,6.53625-.36308.76376-.081,1.25472.83748,1.586,2.28719.825,4.51388,1.81761,6.94506,2.817,1.24145-1.94138,2.67912-4.10738,4.00144-6.34164a1.77186,1.77186,0,0,0-.193-1.52027A8.37565,8.37565,0,0,0,45.15262,54.24805Z"/>
  <path fill="none" d="M45.68393,68.21762a2.64938,2.64938,0,0,0-.48732-.56533,10.13337,10.13337,0,0,0-3.20141-1.59457c-1.33723-.4973-3.7184-1.31532-4.88181-.11726a.197.197,0,0,1-.04831-.0106C33.33555,69.85871,29.606,73.78753,25.817,77.779c.735.34485,10.271-8.06878,10.56712-7.82307-2.35047,2.88312-5.36591,9.58805-4.55786,10.0002.32454-.66687.54917-1.2281.85524-1.74071,1.52394-2.55248,5.43156-7.18608,5.85645-6.96108-1.37123,2.25371-3.65963,9.13969-3.41222,9.19886.13607.03256,4.75586-8.42081,5.19523-8.14652-.03177.07632-3.19411,9.53284-1.94816,9.75363.16845-.45728,4.03024-7.34661,3.84845-6.8184-.996,2.89381-2.68571,5.65752-1.92108,9.02892.39727-.01984,4.13178-9.69708,4.477-9.15721-.95486,3.21339-1.52756,10.10592-.91789,10.26355a2.7259,2.7259,0,0,0,.2456-.52308c.73589-4.12823,1.49053-8.25346,2.17615-12.39012a8.30295,8.30295,0,0,0,.1266-3.17277A2.0777,2.0777,0,0,0,45.68393,68.21762Z"/>
  <path fill="none" d="M40.86234,87.052c-.92789-.13959-2.10145.16969-2.7483-.29809-.5687-.41126-.55806-1.62358-.785-2.41808-.82971.17183-1.75465.65226-2.432.41773-.60732-.21027-.94216-1.20733-1.41053-1.87634-2.775,1.58872-2.776,1.58838-3.5874-1.35426-1.4264-.40081-3.156,2.16286-4.23857-.49413-1.278.68306-2.90613.63878-2.90159,2.47776,1.96269.98683,1.93.97818,1.32557,3.261a1.56647,1.56647,0,0,0,.53732,1.08885,16.72169,16.72169,0,0,0,2.234-.74541c.43244-.157.86333-.31822,1.29494-.47752.13392.51714.48413,1.10322.34688,1.534-.17139.53794-.80026.91195-1.12832,1.423a7.57763,7.57763,0,0,0-.837,1.80826c-.02461.07832.86084.63916.99081.53982,1.50583-1.15117,2.18156-.00956,2.89084,1.07834,1.16134-.74072,2.28182-1.87983,3.396-.08534a.408.408,0,0,0,.358.1487c1.52036-.76206,2.26065.14444,2.90049,1.57854.59714-.82553,1.08035-1.49356,1.77418-2.45272-.71613.03449-1.16432.02688-1.60339.08625-.36747.04965-.92917.36272-1.04529.2342a3.449,3.449,0,0,1-.4881-1.1629A5.2679,5.2679,0,0,0,37.3142,90.73c1.34219-1.28722,2.08536-1.20073,2.98284.45158,1.42878-.01957,1.215-1.28553,1.591-2.09878C42.45668,87.853,42.17333,87.24921,40.86234,87.052ZM27.3459,85.71218c-.347.04481-1.10049-.68963-1.1139-1.09574-.01344-.40823.59718-1.019,1.06445-1.19442.29051-.10906.82275.42587,1.57663.86329C28.18227,84.97507,27.804,85.653,27.3459,85.71218Zm6.3112,2.27091a21.82369,21.82369,0,0,1-3.554-.28,1.35667,1.35667,0,0,1-.16942-1.07245c.19388-.40115.66714-.95651,1.004-.94506a15.4116,15.4116,0,0,1,2.96717.52123c.15894.03748.244.38818.37607.61641C34.05971,87.25458,33.86382,87.98,33.6571,87.98309Zm3.013,1.14989c-.11135.05444-.92645-.85967-.85289-.9786a4.42824,4.42824,0,0,1,1.33216-1.29222c.08064-.0534.58268.52936,1.09224,1.00807A8.71282,8.71282,0,0,1,36.67012,89.133Z"/>
  <path fill="none" d="M70.56779,12.40486c-4.26408,6.08268-8.30774,12.322-12.36075,18.55-4.10374,6.306-8.118,12.67029-12.15838,19.01742-.86132,1.35315-.59744,2.10257.8237,2.2981,2.63623.36274,5.09216,1.04815,6.65077,3.37914,1.51283-.76811,1.39081-1.61378.3496-2.55657-.18161-.16446-.44217-.4012-.43013-.58941a10.79466,10.79466,0,0,1,.30107-1.53343,5.58379,5.58379,0,0,1,1.27272.60791A5.59278,5.59278,0,0,1,55.855,52.7133l.53471-.26942a4.42568,4.42568,0,0,0-.50771-1.19906c-.61058-.73-1.42806-1.41994-.338-2.31188,1.09284-.89425,1.32989.36259,1.86421.85124a2.74036,2.74036,0,0,0,.505.21845,6.49,6.49,0,0,0-.10158-1.4751c-.13459-.42822-.5927-.77432-.66418-1.19776a6.20727,6.20727,0,0,1,.13807-1.61821,9.78024,9.78024,0,0,1,1.56951.70687c.23686.15682.29812.57878.48432.97849.95158-.80836.76894-1.48381.29853-2.3739-.27945-.52879-.07342-1.31419-.08564-1.98421l2.27681.3939c.61713-.41709.73022-1.16487.00466-2.18635a1.61546,1.61546,0,0,1-.06372-1.50674c.22122-.29756.95886-.24105,1.47335-.276.20448-.01388.42074.146.75482.27388.27089-1.226,1.35529-2.24045.23587-3.39514-.67543-.69667-.56522-1.38214.10491-1.7834.38595-.2311,1.08668.06345,1.94956.1529.40844-.738,1.31595-1.64188.39575-3.03027-.30209-.45584-.09586-1.24865-.1221-1.88738h2.221c.69509-.588-.21955-1.1921-.62844-1.82672-.49465-.76775-.84675-1.61681.106-2.11078.43024-.223,1.21748.24258,2.10966.46113,1.12438-.89588-.2573-2.01667-.48064-3.22037a6.889,6.889,0,0,1,.25022-2.06576l1.98124.8327c.63651-.6473.66563-1.42391-.01045-2.52395-.38746-.63043-.06364-1.698-.06-2.56882.65347.13861,1.307.2772,2.21563.46993a12.071,12.071,0,0,1-.70674-2.02687,2.89566,2.89566,0,0,1,.17336-1.81443c.15376-.26723.97991-.14773,1.86077-.24011,0-.29724.2141-.99051-.04047-1.36582-.73571-1.08447-.578-1.70012.57351-2.32825,1.06691-.582,1.367-2.57845.49832-3.7887A71.5408,71.5408,0,0,0,70.56779,12.40486Z"/>
  <path fill="transparent" d="M77.93488,3.46181c-.16848-.17267-1.00129.07286-1.3515.352A16.79087,16.79087,0,0,0,73.8757,6.31791c-3.3354,4.16245-12.591,17.29742-14.07749,19.5662-2.97936,4.54708-6.09278,9.00637-9.06881,13.55558-1.48535,2.27061-2.80691,4.64964-4.172,6.99735-1.66208,2.85841-3.45728,5.65549-4.8945,8.62452a54.39028,54.39028,0,0,1-6.65831,10.56313,134.43524,134.43524,0,0,1-10.451,11.27225,16.78852,16.78852,0,0,0-3.38651,5.66594,2.88705,2.88705,0,0,0-.09984,1.613c.44422,2.30953.961,4.59453,3.08048,6.07911.24409.171.33613.60757.42681.94057.40866,1.50108.89343,2.87418,2.88576,2.7405.29994-.02012.60956.35863.94.48849.91024.35773,1.82287.71644,2.75492,1.00995a36.06476,36.06476,0,0,0,4.02545,1.1277,5.31684,5.31684,0,0,0,2.04818-.27483c.47859-.10921.9509-.54137,1.38671-.49073,1.77032.20568,2.896-.8876,4.038-1.8939,1.18178-1.04145,2.00411-2.28848,1.42333-3.61335.7083-.975,1.43257-1.53508,1.53456-2.19184.3462-2.22881.34995-4.51141.70606-6.738.977-6.10821,1.67193-12.3283,5.70884-17.442,3.0396-3.8503,4.41371-8.61134,7.11756-12.70929A162.15785,162.15785,0,0,0,68.90314,33.339a139.17709,139.17709,0,0,0,9.06177-21.968,31.71362,31.71362,0,0,0,1.03166-6.04444C79.05177,4.72531,78.42965,3.96863,77.93488,3.46181Zm-36.04683,85.621c-.376.81325-.16223,2.07921-1.591,2.09878-.89748-1.65231-1.64065-1.7388-2.98284-.45158a5.2679,5.2679,0,0,1-1.60828.63362,3.449,3.449,0,0,0,.4881,1.1629c.11612.12852.67782-.18455,1.04529-.2342.43907-.05937.88726-.05176,1.60339-.08625-.69383.95916-1.177,1.62719-1.77418,2.45272-.63984-1.4341-1.38013-2.3406-2.90049-1.57854a.408.408,0,0,1-.358-.1487c-1.11416-1.79449-2.23464-.65538-3.396.08534-.70928-1.0879-1.385-2.22951-2.89084-1.07834-.13.09934-1.01542-.4615-.99081-.53982a7.57763,7.57763,0,0,1,.837-1.80826c.32806-.51109.95693-.8851,1.12832-1.423.13725-.43074-.213-1.01682-.34688-1.534-.43161.1593-.8625.32055-1.29494.47752a16.72169,16.72169,0,0,1-2.234.74541,1.56647,1.56647,0,0,1-.53732-1.08885c.60441-2.28282.63712-2.27417-1.32557-3.261-.00454-1.839,1.62361-1.7947,2.90159-2.47776,1.08259,2.657,2.81217.09332,4.23857.49413.81135,2.94264.81241,2.943,3.5874,1.35426.46837.669.80321,1.66607,1.41053,1.87634.67732.23453,1.60226-.2459,2.432-.41773.22694.7945.2163,2.00682.785,2.41808.64685.46778,1.82041.1585,2.7483.29809C42.17333,87.24921,42.45668,87.853,41.88805,89.08279Zm4.39308-16.61886c-.68562,4.13666-1.44026,8.26189-2.17615,12.39012a2.7259,2.7259,0,0,1-.2456.52308c-.60967-.15763-.037-7.05016.91789-10.26355-.34527-.53987-4.07978,9.13737-4.477,9.15721-.76463-3.3714.92509-6.13511,1.92108-9.02892.18179-.52821-3.68,6.36112-3.84845,6.8184-1.246-.22079,1.91639-9.67731,1.94816-9.75363-.43937-.27429-5.05916,8.17908-5.19523,8.14652-.24741-.05917,2.041-6.94515,3.41222-9.19886-.42489-.225-4.33251,4.4086-5.85645,6.96108-.30607.51261-.5307,1.07384-.85524,1.74071-.808-.41215,2.20739-7.11708,4.55786-10.0002-.2961-.24571-9.83213,8.16792-10.56712,7.82307,3.789-3.99143,7.5185-7.92025,11.248-11.8491a.197.197,0,0,0,.04831.0106c1.16341-1.19806,3.54458-.38,4.88181.11726a10.13337,10.13337,0,0,1,3.20141,1.59457,2.64938,2.64938,0,0,1,.48732.56533,2.0777,2.0777,0,0,1,.7238,1.07354A8.30295,8.30295,0,0,1,46.28113,72.46393Zm6.01452-13.10041c-1.32232,2.23426-2.76,4.40026-4.00144,6.34164-2.43118-.99939-4.65787-1.992-6.94506-2.817-.91846-.33129-1.20056-.82225-.83748-1.586,1.04961-2.20757,2.14931-4.394,3.32492-6.53625a1.65373,1.65373,0,0,1,1.316-.51785,8.37565,8.37565,0,0,1,6.95,3.5952A1.77186,1.77186,0,0,1,52.29565,59.36352ZM76.12689,9.46611c-1.15153.62813-1.30922,1.24378-.57351,2.32825.25457.37531.04047,1.06858.04047,1.36582-.88086.09238-1.707-.02712-1.86077.24011a2.89566,2.89566,0,0,0-.17336,1.81443,12.071,12.071,0,0,0,.70674,2.02687c-.90865-.19273-1.56216-.33132-2.21563-.46993-.0036.87077-.32742,1.93839.06,2.56882.67608,1.1.647,1.87665.01045,2.52395l-1.98124-.8327a6.889,6.889,0,0,0-.25022,2.06576c.22334,1.2037,1.605,2.32449.48064,3.22037-.89218-.21855-1.67942-.68416-2.10966-.46113-.9528.494-.6007,1.343-.106,2.11078.40889.63462,1.32353,1.23869.62844,1.82672h-2.221c.02624.63873-.18,1.43154.1221,1.88738.9202,1.38839.01269,2.29225-.39575,3.03027-.86288-.08945-1.56361-.384-1.94956-.1529-.67013.40126-.78034,1.08673-.10491,1.7834,1.11942,1.15469.035,2.16912-.23587,3.39514-.33408-.12791-.55034-.28776-.75482-.27388-.51449.03493-1.25213-.02158-1.47335.276a1.61546,1.61546,0,0,0,.06372,1.50674c.72556,1.02148.61247,1.76926-.00466,2.18635l-2.27681-.3939c.01222.67-.19381,1.45542.08564,1.98421.47041.89009.65305,1.56554-.29853,2.3739-.1862-.39971-.24746-.82167-.48432-.97849a9.78024,9.78024,0,0,0-1.56951-.70687,6.20727,6.20727,0,0,0-.13807,1.61821c.07148.42344.52959.76954.66418,1.19776a6.49,6.49,0,0,1,.10158,1.4751,2.74036,2.74036,0,0,1-.505-.21845c-.53432-.48865-.77137-1.74549-1.86421-.85124-1.09008.89194-.2726,1.58191.338,2.31188a4.42568,4.42568,0,0,1,.50771,1.19906l-.53471.26942a5.59278,5.59278,0,0,0-.83864-1.13533,5.58379,5.58379,0,0,0-1.27272-.60791,10.79466,10.79466,0,0,0-.30107,1.53343c-.012.18821.24852.425.43013.58941,1.04121.94279,1.16323,1.78846-.3496,2.55657-1.55861-2.331-4.01454-3.0164-6.65077-3.37914-1.42114-.19553-1.685-.94495-.8237-2.2981C50.089,43.6251,54.1033,37.2608,58.207,30.95481c4.053-6.228,8.09667-12.46727,12.36075-18.54995a71.5408,71.5408,0,0,1,6.05742-6.72745C77.49392,6.88766,77.1938,8.88412,76.12689,9.46611Z"/>
  <path fill="transparent" d="M33.90478,86.20685a15.4116,15.4116,0,0,0-2.96717-.52123c-.33684-.01145-.8101.54391-1.004.94506a1.35667,1.35667,0,0,0,.16942,1.07245,21.82369,21.82369,0,0,0,3.55405.28c.20672-.00308.40261-.72851.62375-1.15983C34.14875,86.595,34.06372,86.24433,33.90478,86.20685Z"/>
  <path fill="transparent" d="M27.29645,83.422c-.46727.17542-1.07789.78619-1.06445,1.19442.01341.40611.76694,1.14055,1.1139,1.09574.45811-.05914.83637-.73711,1.52718-1.42687C28.1192,83.84789,27.587,83.313,27.29645,83.422Z"/>
  <path fill="transparent" d="M37.14939,86.86216a4.42824,4.42824,0,0,0-1.33216,1.29222c-.07356.11893.74154,1.033.85289.9786a8.71282,8.71282,0,0,0,1.57151-1.26275C37.73207,87.39152,37.23,86.80876,37.14939,86.86216Z"/>
</svg>