<svg xmlns="http://www.w3.org/2000/svg" xmlns:xlink="http://www.w3.org/1999/xlink" version="1.1" x="0px" y="0px" viewBox="0 0 100 125" enable-background="new 0 0 100 100" xml:space="preserve"><g><polygon points="10.307,84.582 7.41,90.268 9.733,92.588 15.419,89.693 15.419,84.582  "/><polygon points="5,95 8.6,93.168 6.833,91.402  "/><polygon points="83.991,16.867 16.619,84.238 16.63,85.021 16.63,86.77 85.262,18.139  "/><polygon points="80.05,12.928 12.293,80.684 10.924,83.371 11.569,83.32 81.006,13.883  "/><polygon points="81.862,14.738 13.259,83.344 14.979,83.371 15.763,83.381 83.135,16.01  "/><polygon points="86.118,18.994 16.63,88.482 16.63,89.076 19.316,87.707 87.073,19.951  "/><path d="M90.566,16.459l3.847-3.848c0.783-0.783,0.783-2.062,0-2.846l-4.179-4.18c-0.782-0.781-2.062-0.781-2.845,0l-3.848,3.848   L90.566,16.459z"/><rect x="84.049" y="9.726" transform="matrix(0.7071 -0.7071 0.7071 0.7071 14.5969 64.6249)" width="2.516" height="9.933"/></g></svg>