<svg xmlns:dc="http://purl.org/dc/elements/1.1/" xmlns:cc="http://creativecommons.org/ns#" xmlns:rdf="http://www.w3.org/1999/02/22-rdf-syntax-ns#" xmlns:svg="http://www.w3.org/2000/svg" xmlns="http://www.w3.org/2000/svg" xmlns:sodipodi="http://sodipodi.sourceforge.net/DTD/sodipodi-0.dtd" xmlns:inkscape="http://www.inkscape.org/namespaces/inkscape" viewBox="0 0 24 24" version="1.1" x="0px" y="0px"><g transform="translate(0,-280.06667)"><path style="color:#000000;font-style:normal;font-variant:normal;font-weight:normal;font-stretch:normal;font-size:medium;line-height:normal;font-family:sans-serif;font-variant-ligatures:normal;font-variant-position:normal;font-variant-caps:normal;font-variant-numeric:normal;font-variant-alternates:normal;font-feature-settings:normal;text-indent:0;text-align:start;text-decoration:none;text-decoration-line:none;text-decoration-style:solid;text-decoration-color:#000000;letter-spacing:normal;word-spacing:normal;text-transform:none;writing-mode:lr-tb;direction:ltr;text-orientation:mixed;dominant-baseline:auto;baseline-shift:baseline;text-anchor:start;white-space:normal;shape-padding:0;clip-rule:nonzero;display:inline;overflow:visible;visibility:visible;opacity:1;isolation:auto;mix-blend-mode:normal;color-interpolation:sRGB;color-interpolation-filters:linearRGB;solid-color:#000000;solid-opacity:1;vector-effect:none;fill:#000000;fill-opacity:1;fill-rule:evenodd;stroke:none;stroke-width:2.00647426;stroke-linecap:butt;stroke-linejoin:miter;stroke-miterlimit:4;stroke-dasharray:none;stroke-dashoffset:0;stroke-opacity:1;color-rendering:auto;image-rendering:auto;shape-rendering:auto;text-rendering:auto;enable-background:accumulate" d="m 365,401 c -1.64501,0 -3,1.35499 -3,3 v 10.62109 c 0,0.35887 -0.18921,0.68776 -0.5,0.86719 -0.31079,0.17944 -0.68921,0.17944 -1,0 l -9.19922,-5.31055 c -1.42462,-0.8225 -3.27514,-0.32696 -4.09766,1.09766 -1.98365,3.49247 -3.9925,6.97044 -6,10.44922 -0.8225,1.42462 -0.32695,3.27515 1.09766,4.09766 l 9.19922,5.31054 c 0.31079,0.17943 0.5,0.50832 0.5,0.86719 0,0.35887 -0.19116,0.68775 -0.50195,0.86719 l -9.19727,5.31054 c -1.42462,0.82251 -1.92016,2.67304 -1.09766,4.09766 2.01857,3.47242 4.00839,6.96131 6,10.44922 0.82251,1.42462 2.67499,1.92016 4.09961,1.09766 L 360.5,448.51172 c 0.31079,-0.17944 0.69117,-0.17944 1.00195,0 0.3108,0.17943 0.50001,0.50636 0.5,0.86523 V 460 c 10e-6,1.64501 1.35499,3 3,3 3.99935,0 7.9987,0 11.99805,0 1.64501,0 3,-1.35499 3,-3 v -10.62109 c 0,-0.35887 0.18921,-0.68776 0.5,-0.86719 0.31079,-0.17944 0.68921,-0.17944 1,0 l 9.19922,5.31055 c 1.42462,0.8225 3.27514,0.32696 4.09766,-1.09766 1.98365,-3.49247 3.9925,-6.97044 6,-10.44922 0.8225,-1.42462 0.32695,-3.27515 -1.09766,-4.09766 L 390.5,432.86523 C 390.18921,432.6858 390,432.35887 390,432 c 0,-0.35887 0.19116,-0.68775 0.50195,-0.86719 l 9.19727,-5.31054 c 1.42462,-0.82251 1.92016,-2.67304 1.09766,-4.09766 -2.01857,-3.47242 -4.00839,-6.96131 -6,-10.44922 -0.82252,-1.42462 -2.67304,-1.92016 -4.09766,-1.09766 L 381.5,415.48828 c -0.31079,0.17944 -0.68921,0.17944 -1,0 -0.31079,-0.17943 -0.5,-0.50832 -0.5,-0.86719 V 404 c 0,-1.64501 -1.35499,-3 -3,-3 -4,0 -8,0 -12,0 z m 0,2 c 4,0 8,0 12,0 0.56413,0 1,0.43587 1,1 v 10.62109 c 0,1.0702 0.57318,2.06452 1.5,2.59961 0.92682,0.5351 2.07318,0.5351 3,0 l 9.19922,-5.3125 c 0.48855,-0.28206 1.08317,-0.12136 1.36523,0.36719 1.98323,3.49309 3.99332,6.97072 6.00196,10.44922 0.28206,0.48855 0.12136,1.08317 -0.36719,1.36523 l -9.19727,5.31055 c -0.92682,0.5351 -1.50196,1.52942 -1.50195,2.59961 0,1.0702 0.57318,2.06256 1.5,2.59766 l 9.20117,5.31054 c 0.48855,0.28207 0.64535,0.87864 0.36328,1.36719 -2.01641,3.47366 -4.00741,6.96188 -6,10.44922 -0.28206,0.48855 -0.87668,0.64925 -1.36523,0.36719 L 382.5,446.7793 c -0.92682,-0.5351 -2.07318,-0.5351 -3,0 -0.92682,0.53509 -1.5,1.52941 -1.5,2.59961 V 460 c 0,0.56413 -0.43587,1 -1,1 -4,0 -8,0 -12,0 -0.56413,0 -1,-0.43587 -1,-1 l 0.002,-10.62305 c 0,-1.0702 -0.57318,-2.06255 -1.5,-2.59765 -0.92681,-0.53511 -2.07513,-0.53315 -3.00195,0.002 l -9.19727,5.31055 c -0.48855,0.28206 -1.08772,0.12285 -1.36718,-0.36719 -1.98323,-3.49309 -3.99332,-6.97072 -6.00196,-10.44922 -0.28206,-0.48855 -0.12136,-1.08512 0.36719,-1.36719 l 9.19727,-5.31054 c 0.92682,-0.5351 1.50196,-1.52747 1.50195,-2.59766 0,-1.0702 -0.57318,-2.06256 -1.5,-2.59766 l -9.20117,-5.31054 c -0.48855,-0.28207 -0.64535,-0.87864 -0.36328,-1.36719 2.01641,-3.47366 4.00741,-6.96188 6,-10.44922 0.28206,-0.48855 0.87668,-0.64925 1.36523,-0.36719 l 9.19922,5.3125 c 0.92682,0.5351 2.07318,0.5351 3,0 0.92682,-0.53509 1.5,-1.52941 1.5,-2.59961 V 404 c 0,-0.56413 0.43587,-1 1,-1 z" transform="matrix(0.26287858,0,0,0.26458333,-89.061251,174.23339)"/></g></svg>